<svg width="48" height="48" viewBox="0 0 48 48" fill="none" xmlns="http://www.w3.org/2000/svg">
<circle cx="24" cy="24" r="24" fill="white"/>
<path d="M35.6133 15.509L32.4933 12.389C31.9733 11.869 31.1333 11.869 30.6133 12.389L26.4533 16.549L24.8133 14.9357C24.2933 14.4157 23.4533 14.429 22.9333 14.9357C22.4133 15.4557 22.4133 16.2957 22.9333 16.8157L23.8933 17.7757L12.2 29.469C12.0667 29.6024 12 29.7624 12 29.949V35.3357C12 35.709 12.2933 36.0024 12.6667 36.0024H18.0533C18.2267 36.0024 18.4 35.9357 18.52 35.8024L30.2133 24.109L31.1733 25.069C31.6933 25.589 32.5333 25.589 33.0533 25.069C33.5733 24.549 33.5733 23.709 33.0533 23.189L31.4267 21.5624L35.5867 17.4024C36.1333 16.869 36.1333 16.029 35.6133 15.509ZM17.2267 33.3357L14.6667 30.7757L25.4133 20.029L27.9733 22.589L17.2267 33.3357Z" fill="#196584"/>
</svg>
