<svg width="48" height="48" viewBox="0 0 48 48" fill="none" xmlns="http://www.w3.org/2000/svg">
<g id="pink">
<circle id="Ellipse 1000" cx="24" cy="24" r="24" fill="#8C4A60"/>
<path id="Ellipse 999" d="M48 24C48 27.1517 47.3792 30.2726 46.1731 33.1844C44.967 36.0962 43.1992 38.742 40.9706 40.9706C38.742 43.1992 36.0962 44.967 33.1844 46.1731C30.2726 47.3792 27.1517 48 24 48C20.8483 48 17.7274 47.3792 14.8156 46.1731C11.9038 44.967 9.25804 43.1992 7.02944 40.9706C4.80083 38.742 3.033 36.0962 1.82689 33.1844C0.620778 30.2726 -2.75532e-07 27.1517 0 24L24 24H48Z" fill="#FFD9E2"/>
<path id="Ellipse 1001" d="M24 48C17.6348 48 11.5303 45.4714 7.02944 40.9706C2.52857 36.4697 3.99628e-06 30.3652 0 24L24 24L24 48Z" fill="#FFB0C8"/>
</g>
</svg>
