<svg width="24" height="24" viewBox="0 0 24 24" fill="none" xmlns="http://www.w3.org/2000/svg">
<g id="Icon">
<g id="Vector">
<path d="M6.27079 5.35452C5.8583 5.35452 5.58329 5.62948 5.58329 6.04199C5.58329 6.4545 5.8583 6.72952 6.27079 6.72952C6.68328 6.72952 6.95829 6.4545 6.95829 6.04199C6.95829 5.62948 6.68328 5.35452 6.27079 5.35452Z" fill="#40484C"/>
<path d="M8.56246 5.35439C8.14997 5.35439 7.87496 5.62934 7.87496 6.04185C7.87496 6.45436 8.14997 6.72939 8.56246 6.72939C8.97495 6.72939 9.24996 6.45436 9.24996 6.04185C9.24996 5.62934 8.97495 5.35439 8.56246 5.35439Z" fill="#40484C"/>
<path d="M10.8541 5.35439C10.4416 5.35439 10.1666 5.62934 10.1666 6.04185C10.1666 6.45436 10.4416 6.72939 10.8541 6.72939C11.2666 6.72939 11.5416 6.45436 11.5416 6.04185C11.5416 5.62934 11.2666 5.35439 10.8541 5.35439Z" fill="#40484C"/>
<path fill-rule="evenodd" clip-rule="evenodd" d="M5.12496 4.43799C4.49174 4.43799 3.97913 4.9506 3.97913 5.58382V7.64602H20.0208V5.58382C20.0208 4.9506 19.5082 4.43799 18.875 4.43799H5.12496ZM21.3958 5.58382C21.3958 4.19121 20.2676 3.06299 18.875 3.06299H5.12496C3.73235 3.06299 2.60413 4.19121 2.60413 5.58382V18.4172C2.60413 19.8098 3.73235 20.938 5.12496 20.938H18.875C20.2676 20.938 21.3958 19.8098 21.3958 18.4172V5.58382ZM20.0208 9.02102H3.97913V18.4172C3.97913 19.0504 4.49174 19.563 5.12496 19.563H18.875C19.5082 19.563 20.0208 19.0504 20.0208 18.4172V9.02102Z" fill="#40484C"/>
<path d="M11.5589 10.396C11.2001 10.396 10.8489 10.4999 10.5479 10.6952C10.2469 10.8905 10.0089 11.1689 9.863 11.4968L9.37785 12.5867C9.37014 12.604 9.35703 12.6186 9.34023 12.6283L8.59982 13.0551C8.583 13.0648 8.56342 13.069 8.54394 13.067L7.35599 12.9415C6.99919 12.9038 6.63906 12.9703 6.31921 13.1329C5.99935 13.2954 5.73343 13.5473 5.55379 13.8579L5.14468 14.5654C4.96503 14.8761 4.87944 15.2322 4.89837 15.5906C4.9173 15.949 5.03993 16.2941 5.25127 16.5842L5.93803 17.5266C5.94927 17.5421 5.95524 17.5605 5.95524 17.5793V18.5877C5.95524 18.6065 5.94927 18.6249 5.93803 18.6403L5.26461 19.5627H6.96727L7.0493 19.4501C7.23183 19.1996 7.33024 18.8977 7.33024 18.5877V17.5793C7.33024 17.2693 7.23183 16.9674 7.0493 16.7169L6.36254 15.7744C6.30793 15.6995 6.27634 15.6104 6.27146 15.5181C6.26658 15.4258 6.28862 15.3339 6.335 15.2537L6.74412 14.5462C6.7905 14.466 6.85929 14.4008 6.94228 14.3586C7.02528 14.3164 7.11884 14.2991 7.21159 14.3089L8.39953 14.4344C8.70756 14.4669 9.01807 14.4011 9.28647 14.2464L10.0269 13.8196C10.2953 13.6649 10.508 13.429 10.634 13.1458L11.1192 12.0559C11.1568 11.9714 11.2183 11.8993 11.2964 11.8487C11.3744 11.798 11.4656 11.771 11.5589 11.771H12.3771C12.4703 11.771 12.5615 11.798 12.6396 11.8487C12.7176 11.8993 12.7791 11.9714 12.8168 12.056L13.2577 13.0465C13.3837 13.3297 13.5963 13.5656 13.8648 13.7203L14.7675 14.2407C15.0359 14.3954 15.3465 14.4612 15.6545 14.4287L16.7883 14.3089C16.8811 14.2991 16.9746 14.3164 17.0576 14.3586C17.1406 14.4008 17.2094 14.466 17.2558 14.5462L17.6649 15.2537C17.7113 15.3339 17.7333 15.4258 17.7285 15.5181C17.7236 15.6104 17.692 15.6995 17.6374 15.7744L17.0146 16.6291C16.8321 16.8796 16.7337 17.1815 16.7337 17.4915V18.6755C16.7337 18.9855 16.8321 19.3122 17.0146 19.5627H18.7487L18.1259 18.7282C18.1146 18.7128 18.1087 18.6943 18.1087 18.6755V17.4915C18.1087 17.4727 18.1146 17.4542 18.1259 17.4388L18.7487 16.5842C18.96 16.2941 19.0826 15.949 19.1015 15.5906C19.1205 15.2322 19.0349 14.8761 18.8552 14.5654L18.4461 13.8579C18.2665 13.5473 18.0006 13.2954 17.6807 13.1329C17.3609 12.9703 17.0007 12.9038 16.6439 12.9415L15.5101 13.0613C15.4906 13.0633 15.471 13.0592 15.4542 13.0495L14.5515 12.5291C14.5347 12.5194 14.5216 12.5047 14.5139 12.4874L14.073 11.4968C13.927 11.169 13.689 10.8905 13.388 10.6952C13.087 10.4999 12.7358 10.396 12.3771 10.396H11.5589Z" fill="#40484C"/>
<path fill-rule="evenodd" clip-rule="evenodd" d="M14.6697 19.5627C14.9159 19.1256 15.0564 18.621 15.0564 18.0835C15.0564 16.4142 13.7013 15.0627 12.032 15.0627C10.3626 15.0627 9.00752 16.4142 9.00752 18.0835C9.00752 18.621 9.14801 19.1256 9.39425 19.5627H14.6697ZM10.3825 18.0835C10.3825 17.1756 11.12 16.4377 12.032 16.4377C12.9439 16.4377 13.6814 17.1756 13.6814 18.0835C13.6814 18.7327 13.3044 19.2949 12.7562 19.5627H11.3078C10.7595 19.2949 10.3825 18.7327 10.3825 18.0835Z" fill="#40484C"/>
</g>
</g>
</svg>
