<svg width="24" height="24" viewBox="0 0 24 24" fill="none" xmlns="http://www.w3.org/2000/svg">
<g id="Icon">
<path id="Vector" fill-rule="evenodd" clip-rule="evenodd" d="M6.04181 4.5C5.60829 4.50001 5.21645 4.7587 5.04558 5.15793C5.03338 5.18645 5.01941 5.21419 5.00377 5.24098L3.65546 7.5504C3.65125 7.56139 3.64721 7.57244 3.64336 7.58355H10.3335V4.50009L6.04181 4.5C6.04182 4.5 6.04181 4.5 6.04181 4.5ZM11.8335 4.50012V7.58355H18.5235C18.5196 7.57232 18.5156 7.56114 18.5113 7.55001L17.1632 5.24122C17.1476 5.21442 17.1336 5.18668 17.1214 5.15815C16.9505 4.75891 16.5587 4.50021 16.1252 4.50021L11.8335 4.50012ZM18.5835 9.08355V12.4585C18.5835 12.8728 18.9193 13.2085 19.3335 13.2085C19.7477 13.2085 20.0835 12.8728 20.0835 12.4585V7.93846C20.0835 7.5889 20.0123 7.24432 19.876 6.9242C19.8636 6.8952 19.8495 6.86701 19.8336 6.83979L18.4801 4.52169C18.0633 3.59786 17.1432 3.00022 16.1252 3.00021C16.1252 3.00021 16.1252 3.00021 16.1252 3.00021L6.04185 3C5.02377 3 4.1037 3.59765 3.6869 4.52149L2.33339 6.83982C2.31768 6.86671 2.30367 6.89456 2.29143 6.9232C2.15451 7.24354 2.0835 7.58946 2.0835 7.93846V17.5002C2.0835 18.9273 3.2397 20.0836 4.66683 20.0836H12.0002C12.4144 20.0836 12.7502 19.7478 12.7502 19.3335C12.7502 18.9193 12.4144 18.5836 12.0002 18.5836H4.66683C4.06813 18.5836 3.5835 18.0989 3.5835 17.5002V9.08355H18.5835ZM18.5969 16.0315C17.8885 15.3231 16.7399 15.3231 16.0315 16.0315C15.3231 16.74 15.3231 17.8885 16.0315 18.5969C16.7177 19.2831 17.8169 19.3047 18.529 18.6615C18.548 18.6371 18.5687 18.6136 18.5911 18.5912C18.6135 18.5687 18.637 18.548 18.6614 18.529C19.3046 17.8169 19.2831 16.7177 18.5969 16.0315ZM20.1276 19.067C20.926 17.7879 20.7693 16.0827 19.6575 14.9709C18.3633 13.6767 16.265 13.6767 14.9708 14.9709C13.6766 16.2651 13.6766 18.3634 14.9708 19.6576C16.0826 20.7694 17.7879 20.9261 19.067 20.1277L19.7198 20.7805C20.0127 21.0734 20.4876 21.0734 20.7805 20.7805C21.0734 20.4877 21.0734 20.0128 20.7805 19.7199L20.1276 19.067ZM4.8335 16.5835C4.8335 16.1693 5.16928 15.8335 5.5835 15.8335H7.41683C7.83104 15.8335 8.16683 16.1693 8.16683 16.5835C8.16683 16.9978 7.83104 17.3335 7.41683 17.3335H5.5835C5.16928 17.3335 4.8335 16.9978 4.8335 16.5835Z" fill="#091E27"/>
</g>
</svg>
