<svg width="24" height="24" viewBox="0 0 24 24" fill="none" xmlns="http://www.w3.org/2000/svg">
<g id="Icon">
<path id="Vector" fill-rule="evenodd" clip-rule="evenodd" d="M2.56647 7.7799C3.73522 4.45711 6.89626 2.0835 10.6252 2.0835C15.3523 2.0835 19.1668 5.89803 19.1668 10.6252C19.1668 11.0394 18.831 11.3752 18.4168 11.3752H14.8052C13.0389 11.3752 11.6067 9.94304 11.6067 8.17675C11.6067 7.32923 11.9431 6.51502 12.5432 5.91483L14.0123 4.44579C13.0082 3.89586 11.8542 3.5835 10.6252 3.5835C7.93917 3.5835 5.61188 5.07529 4.42394 7.27825H7.09966C7.95261 7.27825 8.73202 7.75919 9.11407 8.52194L10.0951 10.483C10.4111 11.1165 10.4115 11.8629 10.0954 12.4963L10.0946 12.498L9.97965 12.727C9.97954 12.7272 9.97976 12.7268 9.97965 12.727C9.5978 13.4901 8.81932 13.9721 7.96591 13.9721C7.71485 13.9721 7.48038 14.0975 7.34053 14.3073L6.16055 16.0772C7.37432 17.0713 8.92815 17.6668 10.6252 17.6668C11.0394 17.6668 11.3752 18.0026 11.3752 18.4168C11.3752 18.831 11.0394 19.1668 10.6252 19.1668C5.89803 19.1668 2.0835 15.3523 2.0835 10.6252C2.0835 9.62694 2.2536 8.66941 2.56647 7.7799ZM3.82664 8.77825C3.66805 9.36653 3.5835 9.98568 3.5835 10.6252C3.5835 12.2728 4.14483 13.7855 5.08731 14.983L6.09246 13.4752C6.50995 12.849 7.21231 12.4721 7.96591 12.4721C8.25076 12.4721 8.51008 12.312 8.63801 12.0562L8.75322 11.8267C8.75309 11.8269 8.75334 11.8264 8.75322 11.8267C8.85843 11.6152 8.85874 11.3652 8.75341 11.1538C8.75335 11.1537 8.75347 11.1539 8.75341 11.1538L7.77292 9.19372M15.2613 5.31815L13.6039 6.97549C13.2856 7.29381 13.1067 7.72626 13.1067 8.17675C13.1067 9.11462 13.8673 9.87516 14.8052 9.87516H17.6276C17.4368 8.05978 16.5606 6.45335 15.2613 5.31815ZM13.6868 14.1451C14.0835 13.7484 14.6245 13.5418 15.2085 13.5418H19.7918C20.3758 13.5418 20.9168 13.7484 21.3135 14.1451C21.7103 14.5418 21.9168 15.0829 21.9168 15.6668V18.8752C21.9168 19.4591 21.7103 20.0001 21.3135 20.3969C20.9168 20.7936 20.3758 21.0002 19.7918 21.0002H15.2085C14.6245 21.0002 14.0835 20.7936 13.6868 20.3969C13.2901 20.0001 13.0835 19.4591 13.0835 18.8752V15.6668C13.0835 15.0829 13.2901 14.5418 13.6868 14.1451ZM14.5835 17.3335V18.8752C14.5835 19.1015 14.6593 19.248 14.7475 19.3362C14.8356 19.4244 14.9821 19.5002 15.2085 19.5002H19.7918C20.0182 19.5002 20.1647 19.4244 20.2529 19.3362C20.3411 19.248 20.4168 19.1015 20.4168 18.8752V17.3335H14.5835ZM20.4168 15.8335H14.5835V15.6668C14.5835 15.4405 14.6593 15.294 14.7475 15.2058C14.8356 15.1176 14.9821 15.0418 15.2085 15.0418H19.7918C20.0182 15.0418 20.1647 15.1176 20.2529 15.2058C20.3411 15.294 20.4168 15.4405 20.4168 15.6668V15.8335Z" fill="#40484C"/>
</g>
</svg>
