<svg width="24" height="24" viewBox="0 0 24 24" fill="none" xmlns="http://www.w3.org/2000/svg">
<g id="Icon">
<path id="Union" fill-rule="evenodd" clip-rule="evenodd" d="M6.8 4.25C5.28122 4.25 4.05 5.48122 4.05 7V14.3358L1.81863 19.1866C1.71182 19.4188 1.73061 19.6894 1.86851 19.9046C2.0064 20.1198 2.2444 20.25 2.5 20.25H16.7C17.1142 20.25 17.45 19.9142 17.45 19.5C17.45 19.0858 17.1142 18.75 16.7 18.75H3.67055L5.28055 15.25H18.6729L20.2943 19.754C20.4346 20.1438 20.8643 20.346 21.254 20.2057C21.6438 20.0654 21.846 19.6357 21.7057 19.246L19.95 14.3691V7C19.95 5.48122 18.7188 4.25 17.2 4.25H6.8ZM18.45 13.75H5.55V7C5.55 6.30964 6.10965 5.75 6.8 5.75H17.2C17.8904 5.75 18.45 6.30964 18.45 7V13.75ZM7.2 16.25C6.78579 16.25 6.45 16.5858 6.45 17C6.45 17.4142 6.78579 17.75 7.2 17.75H17.2C17.6142 17.75 17.95 17.4142 17.95 17C17.95 16.5858 17.6142 16.25 17.2 16.25H7.2ZM12.1402 6.50588C11.9355 6.36523 11.6653 6.36523 11.4606 6.50588L8.6606 8.42986C8.49771 8.54178 8.40039 8.72674 8.40039 8.92437V12.5267C8.40039 12.8581 8.66902 13.1267 9.00039 13.1267H14.6004C14.9318 13.1267 15.2004 12.8581 15.2004 12.5267V8.92437C15.2004 8.72674 15.1031 8.54178 14.9402 8.42986L12.1402 6.50588ZM9.60039 11.9267V10.0233L11.476 11.2289C11.6736 11.356 11.9272 11.356 12.1248 11.2289L14.0004 10.0233V11.9267H9.60039ZM11.8004 10.0109L13.5167 8.90771L11.8004 7.72838L10.0841 8.90771L11.8004 10.0109Z" fill="#40484C"/>
</g>
</svg>
