<svg width="24" height="24" viewBox="0 0 24 24" fill="none" xmlns="http://www.w3.org/2000/svg">
<g id="Icon">
<path id="Vector" fill-rule="evenodd" clip-rule="evenodd" d="M9.61369 5.48851C10.2466 4.85558 11.1051 4.5 12.0002 4.5C12.8953 4.5 13.7537 4.85558 14.3867 5.48851C15.0196 6.12145 15.3752 6.97989 15.3752 7.875C15.3752 8.52528 14.9947 9.29787 14.3598 10.0974C13.7468 10.8693 12.9832 11.559 12.3997 12.0359C12.2837 12.1208 12.1435 12.1667 11.9995 12.1667C11.8555 12.1666 11.7154 12.1207 11.5994 12.0357C11.0162 11.5587 10.253 10.869 9.64026 10.0972C9.00557 9.29771 8.62518 8.52522 8.62518 7.875C8.62518 6.97989 8.98075 6.12145 9.61369 5.48851ZM7.12518 7.875C7.12518 6.58207 7.63879 5.34209 8.55303 4.42785C9.46727 3.51361 10.7072 3 12.0002 3C13.2931 3 14.5331 3.51361 15.4473 4.42785C16.3616 5.34209 16.8752 6.58207 16.8752 7.875C16.8752 9.04588 16.2288 10.1558 15.5344 11.0302C14.8224 11.9269 13.9606 12.6984 13.3356 13.2082C13.3287 13.2139 13.3216 13.2194 13.3144 13.2248C12.9359 13.5116 12.4741 13.6668 11.9992 13.6667C11.5243 13.6666 11.0625 13.5112 10.6841 13.2243C10.677 13.2189 10.6699 13.2133 10.6629 13.2076C10.0386 12.6979 9.17722 11.9264 8.46546 11.0298C7.77134 10.1555 7.12518 9.04573 7.12518 7.875ZM19.3335 16.875C18.7352 16.875 18.2502 17.36 18.2502 17.9583C18.2502 18.5566 18.7352 19.0417 19.3335 19.0417C19.9318 19.0417 20.4168 18.5566 20.4168 17.9583C20.4168 17.36 19.9318 16.875 19.3335 16.875ZM13.5418 17.9583L13.5418 17.9605C13.5406 18.811 12.8509 19.5 12.0002 19.5C11.1487 19.5 10.4585 18.8098 10.4585 17.9583C10.4585 17.1069 11.1487 16.4167 12.0002 16.4167C12.8516 16.4167 13.5418 17.1069 13.5418 17.9583ZM14.9487 18.7083H16.8607C17.1821 19.7693 18.1676 20.5417 19.3335 20.5417C20.7602 20.5417 21.9168 19.3851 21.9168 17.9583C21.9168 16.5316 20.7602 15.375 19.3335 15.375C18.1676 15.375 17.1821 16.1474 16.8607 17.2083H14.9487C14.6146 15.8912 13.4212 14.9167 12.0002 14.9167C10.5791 14.9167 9.38569 15.8912 9.05167 17.2083H7.13961C6.81824 16.1474 5.83273 15.375 4.66683 15.375C3.24009 15.375 2.0835 16.5316 2.0835 17.9583C2.0835 19.3851 3.24009 20.5417 4.66683 20.5417C5.83273 20.5417 6.81824 19.7693 7.13961 18.7083H9.05167C9.38569 20.0255 10.5791 21 12.0002 21C13.4212 21 14.6147 20.0255 14.9487 18.7083ZM3.5835 17.9583C3.5835 17.36 4.06852 16.875 4.66683 16.875C5.26514 16.875 5.75016 17.36 5.75016 17.9583C5.75016 18.5566 5.26514 19.0417 4.66683 19.0417C4.06852 19.0417 3.5835 18.5566 3.5835 17.9583ZM12.0001 8.74445C12.5055 8.74445 12.9153 8.33469 12.9153 7.82924C12.9153 7.32378 12.5055 6.91402 12.0001 6.91402C11.4946 6.91402 11.0849 7.32378 11.0849 7.82924C11.0849 8.33469 11.4946 8.74445 12.0001 8.74445Z" fill="#40484C"/>
</g>
</svg>
