<svg width="60" height="22" viewBox="0 0 60 22" fill="none" xmlns="http://www.w3.org/2000/svg">
<path d="M52.5146 10.5901C52.5146 14.2035 50.3219 16.3344 47.3879 16.3344C44.454 16.3344 42.2612 14.188 42.2612 10.5901C42.2612 6.97668 44.454 4.8457 47.3879 4.8457C50.3219 4.8457 52.5146 6.97668 52.5146 10.5901ZM50.4917 10.5901C50.4917 8.04216 49.2101 6.6524 47.3879 6.6524C45.5658 6.6524 44.2841 8.04216 44.2841 10.5901C44.2841 13.138 45.5658 14.5277 47.3879 14.5277C49.2101 14.5277 50.4917 13.138 50.4917 10.5901Z" fill="#C0C7CD"/>
<path d="M38.5705 8.56718C38.2153 7.37816 37.2888 6.6524 35.9299 6.6524C34.1232 6.6524 32.8261 8.0576 32.8261 10.5746C32.8261 13.1225 34.1078 14.5277 35.9762 14.5277C37.6594 14.5277 38.7403 13.5086 38.7712 11.9181H36.177V10.3276H40.7169V11.671C40.7169 14.5432 38.7403 16.3344 35.9762 16.3344C32.8879 16.3344 30.8032 14.1417 30.8032 10.5901C30.8032 7.00756 32.9805 4.8457 35.9145 4.8457C38.3852 4.8457 40.2845 6.37444 40.6242 8.56718H38.5705Z" fill="#C0C7CD"/>
<path d="M29.29 10.5901C29.29 14.2035 27.0973 16.3344 24.1633 16.3344C21.2294 16.3344 19.0366 14.188 19.0366 10.5901C19.0366 6.97668 21.2294 4.8457 24.1633 4.8457C27.0973 4.8457 29.29 6.97668 29.29 10.5901ZM27.2671 10.5901C27.2671 8.04216 25.9854 6.6524 24.1633 6.6524C22.3412 6.6524 21.0595 8.04216 21.0595 10.5901C21.0595 13.138 22.3412 14.5277 24.1633 14.5277C25.9854 14.5277 27.2671 13.138 27.2671 10.5901Z" fill="#C0C7CD"/>
<path d="M11.2075 16.1799V5H13.215V14.4813H18.1563V16.1799H11.2075Z" fill="#C0C7CD"/>
</svg>
